/vscmnt/brussel_pixiu_data/_data_brussel/112/vsc11236/PredSimResults/SUBJ09_Dhondt2024_3seg/weighted-LRposFixed/worker_04.mot
version=1
nRows=4
nColumns=124
inDegrees=yes
endheader
                time	         pelvis_tilt	         pelvis_list	     pelvis_rotation	           pelvis_tx	           pelvis_ty	           pelvis_tz	       hip_flexion_r	     hip_adduction_r	      hip_rotation_r	        knee_angle_r	       ankle_angle_r	    subtalar_angle_r	         mtp_angle_r	       hip_flexion_l	     hip_adduction_l	      hip_rotation_l	        knee_angle_l	       ankle_angle_l	    subtalar_angle_l	         mtp_angle_l	    lumbar_extension	      lumbar_bending	     lumbar_rotation	          arm_flex_r	           arm_add_r	           arm_rot_r	        elbow_flex_r	          arm_flex_l	           arm_add_l	           arm_rot_l	        elbow_flex_l	glut_med1_r/activation	glut_med2_r/activation	glut_med3_r/activation	glut_min1_r/activation	glut_min2_r/activation	glut_min3_r/activation	semimem_r/activation	semiten_r/activation	bifemlh_r/activation	bifemsh_r/activation	    sar_r/activation	add_long_r/activation	add_brev_r/activation	add_mag1_r/activation	add_mag2_r/activation	add_mag3_r/activation	    tfl_r/activation	   pect_r/activation	   grac_r/activation	glut_max1_r/activation	glut_max2_r/activation	glut_max3_r/activation	iliacus_r/activation	  psoas_r/activation	quad_fem_r/activation	    gem_r/activation	   peri_r/activation	rect_fem_r/activation	vas_med_r/activation	vas_int_r/activation	vas_lat_r/activation	med_gas_r/activation	lat_gas_r/activation	 soleus_r/activation	tib_post_r/activation	flex_dig_r/activation	flex_hal_r/activation	tib_ant_r/activation	per_brev_r/activation	per_long_r/activation	per_tert_r/activation	ext_dig_r/activation	ext_hal_r/activation	glut_med1_l/activation	glut_med2_l/activation	glut_med3_l/activation	glut_min1_l/activation	glut_min2_l/activation	glut_min3_l/activation	semimem_l/activation	semiten_l/activation	bifemlh_l/activation	bifemsh_l/activation	    sar_l/activation	add_long_l/activation	add_brev_l/activation	add_mag1_l/activation	add_mag2_l/activation	add_mag3_l/activation	    tfl_l/activation	   pect_l/activation	   grac_l/activation	glut_max1_l/activation	glut_max2_l/activation	glut_max3_l/activation	iliacus_l/activation	  psoas_l/activation	quad_fem_l/activation	    gem_l/activation	   peri_l/activation	rect_fem_l/activation	vas_med_l/activation	vas_int_l/activation	vas_lat_l/activation	med_gas_l/activation	lat_gas_l/activation	 soleus_l/activation	tib_post_l/activation	flex_dig_l/activation	flex_hal_l/activation	tib_ant_l/activation	per_brev_l/activation	per_long_l/activation	per_tert_l/activation	ext_dig_l/activation	ext_hal_l/activation	 ercspn_r/activation	 ercspn_l/activation	 intobl_r/activation	 intobl_l/activation	 extobl_r/activation	 extobl_l/activation	
          0.00000000	         -2.92935922	         -2.06885784	          2.58767755	          0.00000000	          0.98599503	         -0.00380739	         23.59566081	          3.38163049	         -0.01617032	         -3.32498771	          4.56929542	         -5.81996108	          0.19079148	        -14.67202772	          0.53946358	          8.11543914	         -5.85889289	          5.80917910	         -3.25018672	         17.85749936	         -3.73019528	          1.25424427	         -1.31478212	        -10.78376197	        -13.45205026	         14.24061365	         28.21201346	          2.86094823	        -13.65486720	         18.84765613	         50.81368513	          0.01674825	          0.01433770	          0.01000308	          0.01434012	          0.01433917	          0.01000580	          0.03871807	          0.07509382	          0.20786323	          0.01000152	          0.01000185	          0.13237197	          0.15539631	          0.16540323	          0.16435219	          0.09779315	          0.01000169	          0.01884704	          0.05333785	          0.01198040	          0.02356053	          0.04193562	          0.01000042	          0.01000044	          0.01626624	          0.01000140	          0.01000057	          0.01000163	          0.05645961	          0.05719933	          0.04840928	          0.01000010	          0.01000032	          0.01000005	          0.01197482	          0.01197502	          0.01197499	          0.24602237	          0.20437505	          0.14365622	          0.13600791	          0.28820957	          0.03900023	          0.22690644	          0.10548128	          0.06433312	          0.33057607	          0.25463788	          0.16648654	          0.01000634	          0.01000207	          0.01000185	          0.05194976	          0.10200300	          0.01000060	          0.01000066	          0.01000106	          0.01000375	          0.01000218	          0.36814076	          0.01000267	          0.01000525	          0.01951752	          0.01198318	          0.01000882	          0.30331185	          0.48835648	          0.01197476	          0.01722468	          0.09375670	          0.21125914	          0.01000297	          0.01000299	          0.01000269	          0.38099535	          0.47529068	          0.36425103	          0.30102231	          0.35023253	          0.43546161	          0.01358287	          0.22323962	          0.26584861	          0.02059599	          0.01714246	          0.01477912	          0.01975113	          0.01000005	          0.04227987	          0.01000012	          0.07811106	          0.01000014	
          0.01184847	         -2.92386837	         -2.37182721	          2.71784333	          0.01618035	          0.98548771	         -0.00352610	         22.70706350	          3.93097406	          0.11270166	         -2.42967680	          3.58950216	         -6.06627055	          0.20837415	        -14.77092179	          0.21209886	          7.76051643	         -7.33051784	          5.01124222	         -3.02605183	         19.29176313	         -3.53686217	          1.72280924	         -1.40283835	        -11.38464794	        -13.44978515	         13.93933256	         27.65301439	          2.40322548	        -13.68367865	         18.82816413	         52.02853857	          0.01398634	          0.01197371	          0.01000042	          0.01197542	          0.01197480	          0.01000283	          0.03233318	          0.06271030	          0.17358484	          0.01000016	          0.01000082	          0.11780268	          0.23420068	          0.19793684	          0.19260834	          0.08166699	          0.01000140	          0.04221873	          0.04454289	          0.01000586	          0.01967549	          0.09285537	          0.01000056	          0.01000033	          0.02190589	          0.19218173	          0.05703392	          0.02462369	          0.11945961	          0.12012566	          0.10072958	          0.01000048	          0.01000035	          0.01301803	          0.01000009	          0.01000041	          0.01000042	          0.28293771	          0.19329556	          0.11996959	          0.18781898	          0.32961483	          0.03256883	          0.21937510	          0.08808651	          0.05372403	          0.27606228	          0.21264606	          0.13903150	          0.01000152	          0.01000041	          0.01000021	          0.04338284	          0.08518232	          0.04237484	          0.01000094	          0.01000083	          0.01000213	          0.01000076	          0.30743199	          0.06548342	          0.01000507	          0.01630028	          0.01000839	          0.01000130	          0.25330172	          0.40782319	          0.01000057	          0.01438463	          0.07829542	          0.17642104	          0.01000098	          0.01000095	          0.01000082	          0.34765711	          0.43519373	          0.33911451	          0.29006521	          0.35581118	          0.42838470	          0.01134295	          0.18642646	          0.26272961	          0.01719956	          0.01431553	          0.01234197	          0.01649402	          0.01399107	          0.03530755	          0.01000015	          0.06522985	          0.01000017	
          0.02369693	         -2.91316905	         -2.68051531	          2.83167547	          0.03267470	          0.98500792	         -0.00324040	         21.81484829	          4.45018620	          0.26432305	         -2.07559898	          2.18699890	         -6.28411922	          0.22829162	        -14.77938276	         -0.12461802	          7.36766113	         -8.97407573	          4.04562358	         -2.75135775	         20.79609322	         -3.32313387	          2.20308986	         -1.48353051	        -11.93428963	        -13.45891789	         13.82511929	         26.97981350	          1.88162859	        -13.70877172	         18.80716921	         53.17095992	          0.01167989	          0.01000015	          0.02644316	          0.01000065	          0.01000025	          0.01000031	          0.02700126	          0.05236921	          0.14495916	          0.01000788	          0.01000903	          0.12350560	          0.27635597	          0.26409611	          0.16441561	          0.06819957	          0.01000032	          0.03526162	          0.15684833	          0.01000200	          0.01643114	          0.07754278	          0.01000436	          0.01434115	          0.21479914	          0.16048934	          0.04762858	          0.02056307	          0.09975990	          0.10031612	          0.08411859	          0.01433952	          0.01434114	          0.01300674	          0.02032221	          0.01572384	          0.01717639	          0.24870044	          0.21588637	          0.14754482	          0.15684607	          0.28903588	          0.08574615	          0.18319824	          0.07356029	          0.04486448	          0.23053734	          0.17757895	          0.11610406	          0.01197137	          0.01002779	          0.01197466	          0.03622866	          0.07113521	          0.09522130	          0.01197809	          0.01198793	          0.01199475	          0.01581074	          0.25673398	          0.05468643	          0.01004361	          0.01361502	          0.01197706	          0.01197838	          0.21153004	          0.34056955	          0.01197508	          0.01201355	          0.06538386	          0.14732867	          0.04178919	          0.03777584	          0.03531704	          0.30316195	          0.39070533	          0.30424708	          0.27513886	          0.32057024	          0.39937884	          0.01000004	          0.15568362	          0.25847043	          0.01436324	          0.01195480	          0.01030677	          0.01377402	          0.01971540	          0.02948502	          0.01717233	          0.05447287	          0.01197437	
          0.03554540	         -2.89892983	         -3.00989406	          2.92685151	          0.04936237	          0.98459180	         -0.00299729	         20.89107813	          4.90061872	          0.47646156	         -1.92889776	          0.46670926	         -6.50203167	          0.22492777	        -14.66950908	         -0.48170892	          6.92554091	        -10.81580070	          2.89499380	         -2.44065256	         22.33178798	         -3.09736203	          2.71549687	         -1.55325502	        -12.40944404	        -13.49163890	         13.92978147	         26.18103607	          1.31339591	        -13.71728186	         18.78457631	         54.23092760	          0.23052703	          0.21620091	          0.24189025	          0.20381670	          0.01033720	          0.23986180	          0.03643131	          0.04373915	          0.12105414	          0.01434343	          0.01002860	          0.10313847	          0.23078245	          0.22054449	          0.13730233	          0.05695318	          0.01003941	          0.02944738	          0.13098299	          0.01000073	          0.01372172	          0.06475545	          0.01197519	          0.01197636	          0.17937700	          0.13402369	          0.15102514	          0.01717208	          0.08330896	          0.08377346	          0.07024701	          0.01197486	          0.01197623	          0.01086200	          0.01697092	          0.01313098	          0.01434398	          0.41360683	          0.24307212	          0.12321506	          0.52893392	          0.40577865	          0.20099230	          0.23029364	          0.06142958	          0.03746594	          0.31725131	          0.14829484	          0.09695752	          0.01000552	          0.01000057	          0.01000052	          0.03025429	          0.05940467	          0.10748871	          0.01000340	          0.01001147	          0.01001806	          0.01320401	          0.21439793	          0.09373159	          0.01000257	          0.01137181	          0.01000470	          0.01000417	          0.17664708	          0.28441009	          0.01000059	          0.01003285	          0.05460151	          0.12303290	          0.03489799	          0.03154647	          0.02949311	          0.25316782	          0.32627530	          0.25407398	          0.24629901	          0.26770615	          0.33351851	          0.01000007	          0.17357744	          0.24684487	          0.01199470	          0.01000010	          0.01000035	          0.01856921	          0.03470083	          0.02462284	          0.01434047	          0.04548981	          0.01000032	
